<svg width="144" height="144" viewBox="0 0 144 144" fill="none" xmlns="http://www.w3.org/2000/svg">
<path d="M123.356 90.3535C122.574 91.1358 121.635 91.918 120.853 92.7003C118.819 94.5777 116.473 94.5777 114.752 92.7003C113.031 90.9793 113.031 88.4761 114.752 86.5987C116.942 84.4083 119.132 82.218 121.323 79.8712C127.737 73.4567 134.308 67.0422 140.566 60.4712C144.321 56.5599 144.321 49.9889 140.723 46.0776C136.811 41.8534 130.553 41.384 126.016 44.9824C122.574 47.7986 119.914 51.397 116.629 54.3695C113.187 57.1857 110.214 60.6276 107.085 63.7567C100.984 69.8583 94.8822 75.9599 88.7805 82.0616C83.6176 87.2245 78.2982 92.5438 73.1353 97.7068C71.5708 99.2713 68.7547 99.2713 67.1901 97.8632C65.3127 96.1422 65.3127 93.639 66.8772 91.7616C67.1901 91.4487 67.5031 90.9793 67.9724 90.6664C78.4547 80.3406 88.7805 69.8583 99.2628 59.376C100.202 58.4373 100.984 57.3421 101.61 56.247C103.956 51.397 102.548 45.7647 98.637 42.7921C93.787 39.3502 88.4676 39.8195 84.2434 44.0437C82.366 45.7647 80.645 47.6421 78.7676 49.3631C78.2982 49.8324 77.516 50.3018 76.8902 50.4582C74.8563 50.9276 73.1353 49.9889 72.1966 48.1115C71.2579 46.234 71.7273 44.3566 73.4482 42.7921C81.5837 34.6566 89.5628 26.6775 97.6983 18.542C101.923 14.3178 101.923 7.59039 97.6983 3.36618C93.787 -0.70157 86.7467 -0.70157 82.6789 3.36618C77.8289 8.2162 72.9789 12.9098 68.1289 17.7598C59.3675 26.5211 50.7627 35.1259 42.0014 43.8873C39.811 46.0776 36.9949 46.234 35.2739 44.3566C33.553 42.4792 33.7094 39.976 35.8997 37.7856C39.6546 34.0308 43.4094 30.4324 47.1643 26.5211C51.3885 22.1404 51.0756 15.413 46.6949 11.1888C42.4707 7.27748 35.8997 7.43394 31.6755 11.6581C23.0707 20.263 14.4658 28.8679 5.86095 37.4727C0.854485 41.8534 0.698032 48.1115 5.07869 52.805C8.98999 57.0292 15.8739 57.0292 20.2545 52.9615C21.1932 52.0228 22.132 51.0841 23.0707 50.1453C25.4175 48.1115 28.7029 49.0502 29.7981 51.8663C30.7368 54.2131 29.4852 55.9341 27.9207 57.4986C19.9416 65.4776 11.6497 73.6131 3.51417 81.9051C-0.866488 86.2858 -1.17939 92.8568 2.73191 97.081C7.11257 101.775 13.6836 102.087 18.2207 97.7068C22.4449 93.639 26.5126 89.5713 30.5804 85.5035C40.4368 75.647 50.2933 65.7906 60.1498 55.7776C62.0272 53.9002 64.8434 53.7437 66.5643 55.4647C68.2853 57.1857 68.2853 60.0018 66.2514 61.8792C57.803 70.3277 49.3546 78.7761 40.7498 87.2245C33.7094 94.2648 26.6691 101.305 19.6287 108.346C15.4045 112.57 15.2481 118.671 19.1594 123.208C22.6013 127.276 29.0159 128.058 33.553 124.617C35.4304 123.208 37.1514 121.331 38.8723 119.61C44.0352 114.447 49.1982 109.284 54.3611 104.121C56.8643 101.618 60.6192 102.244 61.7143 105.529C62.4966 107.563 61.7143 108.971 60.3063 110.379C55.4562 115.229 50.6062 120.079 45.7562 125.086C41.532 129.31 41.8449 135.881 46.2256 140.262C50.1369 144.173 56.7079 144.329 60.9321 140.418C62.8095 138.697 64.6869 136.82 66.4079 135.099C78.2982 123.208 90.1886 111.162 102.235 99.2713C103.956 97.5503 106.616 97.5503 108.337 98.9584C110.058 100.523 110.214 103.026 108.65 104.904C107.868 105.842 106.929 106.625 106.147 107.563C102.861 111.005 101.923 115.229 103.643 119.454C105.364 123.521 109.119 126.025 113.5 126.025C116.003 126.025 118.506 125.399 120.384 123.678C126.642 117.576 132.744 111.475 138.689 105.216C142.756 100.836 142.444 94.4213 138.219 90.3535C134.152 86.1293 127.581 86.2858 123.356 90.3535Z" fill="url(#paint0_linear_8_123)"/>
<defs>
<linearGradient id="paint0_linear_8_123" x1="0" y1="143.275" x2="143.421" y2="143.275" gradientUnits="userSpaceOnUse">
<stop stop-color="#AF4DE7"/>
<stop offset="1" stop-color="#4E8BFE"/>
</linearGradient>
</defs>
</svg>
