<svg width="323" height="134" viewBox="0 0 323 134" fill="none" xmlns="http://www.w3.org/2000/svg">
<path d="M42.396 72.5619C42.2034 74.1027 40.8552 75.0657 39.3145 75.0657H25.0623C19.0917 75.0657 14.8546 74.2953 12.3508 72.9471C9.84704 71.4063 8.69145 68.71 8.69145 64.6654C8.69145 62.7394 8.88405 60.6209 9.46184 58.1171L14.2768 33.4646H9.84704C7.92106 33.4646 6.38028 31.7313 6.76548 29.8053L8.11366 22.4866C8.11366 22.1014 8.30626 21.5236 8.69145 21.1384L18.3213 8.42694C18.8991 7.65655 19.8621 7.27136 20.8251 7.27136H32.381C34.3069 7.27136 35.8477 9.00474 35.4625 10.9307L33.3439 21.7162H46.4406C48.3666 21.7162 49.9073 23.4496 49.5221 25.3755L48.3666 30.9608C48.174 32.5016 46.8258 33.4646 45.285 33.4646H31.0328L25.8326 59.6579C25.8326 60.0431 25.8326 60.2357 25.8326 60.4283C25.8326 61.3913 26.603 61.7765 28.3364 61.7765H40.8552C42.7812 61.7765 44.322 63.5098 43.9368 65.4358L42.396 72.5619Z" fill="#2A0042"/>
<path d="M130.028 72.5617C129.835 74.1025 128.487 75.0655 126.946 75.0655H85.5379C78.4118 75.0655 73.5969 73.9099 70.9005 71.7914C68.3967 69.6728 67.6263 65.4356 68.7819 59.2725L73.2117 36.9312C74.5599 30.3829 76.4858 26.1457 79.3748 24.2197C82.2637 22.1012 87.0787 21.1382 93.8196 21.1382H120.976C128.102 21.1382 132.917 22.1012 135.613 24.2197C138.31 26.3383 139.08 30.5754 137.732 36.7386L134.843 51.5686C134.65 53.1094 133.302 54.0724 131.761 54.0724H85.9231L84.5749 60.6207C84.3823 61.3911 84.3823 61.9689 84.7675 62.3541C85.1527 62.5467 85.7305 62.7393 86.8861 62.7393H128.295C130.221 62.7393 131.761 64.4726 131.376 66.3986L130.028 72.5617ZM120.398 43.6721L121.939 35.0052C122.131 34.0422 122.131 33.4644 121.746 33.2718C121.361 33.0792 120.783 32.8866 119.82 32.8866H92.664C91.701 32.8866 90.9306 33.0792 90.5454 33.2718C90.1602 33.4644 89.7751 34.0422 89.5825 35.0052L88.0417 43.6721H120.398Z" fill="#2A0042"/>
<path d="M219.778 72.5619C219.585 74.1027 218.237 75.0656 216.696 75.0656H177.407C171.436 75.0656 167.199 74.2952 164.503 72.9471C161.806 71.5989 160.458 68.7099 160.458 64.6654C160.458 63.1246 160.651 61.1986 161.036 59.0801L165.273 37.7018C166.621 31.346 168.74 27.1089 171.629 24.9903C174.518 22.8718 179.525 21.7162 186.266 21.7162H224.593C226.519 21.7162 228.06 23.4496 227.675 25.3755L226.519 31.5386C226.326 33.0794 224.978 34.0424 223.437 34.0424H185.881C184.918 34.0424 184.148 34.235 183.762 34.4276C183.377 34.6202 182.992 35.198 182.992 36.161L178.37 59.8504C178.177 60.2356 178.177 60.4283 178.177 60.6208C178.177 61.5838 178.947 61.969 180.488 61.969H218.237C220.163 61.969 221.704 63.7024 221.319 65.6284L219.778 72.5619Z" fill="#2A0042"/>
<path d="M311.648 75.0656H300.67C298.744 75.0656 297.203 73.3322 297.588 71.4062L304.522 35.9683C304.522 35.5831 304.522 35.1979 304.522 35.1979C304.522 34.6201 304.329 34.2349 304.136 34.0423C303.751 33.8497 303.173 33.8497 302.403 33.8497H273.321L265.809 72.5618C265.617 74.1026 264.269 75.0656 262.728 75.0656H251.75C249.824 75.0656 248.283 73.3322 248.668 71.4062L261.958 3.22667C262.15 1.68589 263.498 0.7229 265.039 0.7229H276.017C277.943 0.7229 279.484 2.45628 279.099 4.38226L275.825 21.716H305.485C311.455 21.716 315.692 22.4864 318.196 23.8346C320.7 25.1828 322.048 28.0718 322.048 32.1163C322.048 33.6571 321.855 35.5831 321.47 37.7016L314.729 72.5618C314.344 73.91 313.188 75.0656 311.648 75.0656Z" fill="#2A0042"/>
<path d="M32.9586 119.941H12.7359L10.6173 131.112C10.4247 132.267 9.4617 133.038 8.30612 133.038H2.33559C0.794812 133.038 -0.168178 131.689 0.0244199 130.341L8.11352 88.7401C8.30612 87.5845 9.2691 86.8141 10.4247 86.8141H39.1217C42.7811 86.8141 45.4774 87.1993 47.0182 88.1623C48.559 89.1253 49.3294 90.6661 49.3294 93.1698C49.3294 94.1328 49.1368 95.2884 48.9442 96.6366L46.4404 109.926C45.67 113.97 44.3219 116.474 42.3959 117.822C40.2773 119.363 37.1958 119.941 32.9586 119.941ZM35.4624 110.504L38.3513 95.8662C38.3513 95.6736 38.3513 95.481 38.3513 95.2884C38.3513 94.9032 38.1587 94.7106 37.9661 94.7106C37.7735 94.7106 37.3883 94.518 36.8106 94.518H17.7434L14.2766 111.852H33.729C34.3068 111.852 34.692 111.852 35.0772 111.659C35.2698 111.274 35.4624 111.081 35.4624 110.504Z" fill="#2A0042"/>
<path d="M96.7083 118.208C96.5157 119.363 95.5528 120.134 94.3972 120.134H68.9743C64.5445 120.134 61.463 119.556 59.9222 118.208C58.3814 116.859 57.8036 114.356 58.574 110.311L61.2704 96.4441C62.0408 92.3995 63.3889 89.7031 65.1223 88.5476C66.8557 87.1994 69.9373 86.6216 74.1744 86.6216H91.123C95.5528 86.6216 98.6343 87.1994 100.175 88.5476C101.908 89.8957 102.294 92.3995 101.523 96.2515L99.7899 105.111C99.5973 106.267 98.6343 107.037 97.4787 107.037H69.3595L68.5891 111.082C68.3965 111.659 68.5891 112.045 68.7817 112.045C68.9743 112.237 69.3595 112.237 70.1299 112.237H95.3602C96.9009 112.237 97.8639 113.585 97.6713 114.933L96.7083 118.208ZM90.7378 100.489L91.7008 95.0959C91.8934 94.5181 91.8934 94.1329 91.5082 93.9403C91.3156 93.7477 90.9304 93.7477 90.3526 93.7477H73.404C72.8262 93.7477 72.441 93.7477 72.0558 93.9403C71.8632 94.1329 71.6706 94.5181 71.478 95.0959L70.5151 100.489H90.7378Z" fill="#2A0042"/>
<path d="M141.776 120.326H121.361C116.931 120.326 114.042 119.748 112.501 118.4C110.961 117.052 110.575 114.356 111.346 110.504L114.042 96.4441C114.813 92.3995 116.161 89.7031 117.894 88.5476C119.627 87.1994 122.516 86.6216 126.754 86.6216H147.169C151.599 86.6216 154.488 87.392 156.028 88.5476C157.569 89.7031 157.954 92.5921 157.377 96.4441L154.68 110.504C153.91 114.548 152.562 117.245 150.828 118.4C148.902 119.748 145.821 120.326 141.776 120.326ZM143.702 110.889L146.591 95.4811C146.591 94.9033 146.591 94.5181 146.399 94.3255C146.206 94.1329 145.821 94.1329 145.243 94.1329H126.754C126.176 94.1329 125.598 94.1329 125.405 94.3255C125.213 94.5181 125.02 94.9033 124.828 95.4811L121.939 110.889C121.746 111.467 121.939 111.852 122.131 112.044C122.324 112.237 122.709 112.237 123.479 112.237H141.776C142.354 112.237 142.739 112.237 143.124 112.044C143.317 111.659 143.51 111.274 143.702 110.889Z" fill="#2A0042"/>
<path d="M196.474 119.941H176.251L174.133 131.112C173.94 132.267 172.977 133.038 171.822 133.038H165.851C164.31 133.038 163.347 131.689 163.54 130.341L171.629 88.7401C171.822 87.5845 172.785 86.8141 173.94 86.8141H202.637C206.297 86.8141 208.993 87.1993 210.534 88.1623C212.075 89.1253 212.845 90.6661 212.845 93.1698C212.845 94.1328 212.652 95.2884 212.46 96.6366L209.956 109.926C209.186 113.97 207.837 116.474 205.911 117.822C203.793 119.363 200.711 119.941 196.474 119.941ZM198.978 110.504L201.867 95.8662C201.867 95.6736 201.867 95.481 201.867 95.2884C201.867 94.9032 201.674 94.7106 201.482 94.7106C201.289 94.7106 200.904 94.518 200.326 94.518H180.874L177.407 111.852H196.859C197.437 111.852 197.822 111.852 198.208 111.659C198.785 111.274 198.978 111.081 198.978 110.504Z" fill="#2A0042"/>
<path d="M242.312 118.208C242.119 119.363 241.156 120.134 240.001 120.134H232.297C228.637 120.134 225.941 119.748 224.4 118.978C222.859 118.208 222.089 116.667 222.089 114.163C222.089 113.007 222.282 111.659 222.474 110.118L229.215 75.836C229.408 74.6805 230.371 73.9101 231.526 73.9101H237.497C239.038 73.9101 240.001 75.2583 239.808 76.6064L233.26 110.504C233.26 110.696 233.067 110.889 233.067 110.889C233.067 111.467 233.645 111.659 234.608 111.659H240.578C242.119 111.659 243.082 113.007 242.89 114.356L242.312 118.208Z" fill="#2A0042"/>
<path d="M291.232 118.208C291.04 119.363 290.077 120.134 288.921 120.134H263.498C259.068 120.134 255.987 119.556 254.446 118.208C252.905 116.859 252.328 114.356 253.098 110.311L255.794 96.4441C256.565 92.3995 257.913 89.7031 259.646 88.5476C261.38 87.1994 264.461 86.6216 268.698 86.6216H285.647C290.077 86.6216 293.158 87.1994 294.699 88.5476C296.432 89.8957 296.818 92.3995 296.047 96.2515L294.314 105.111C294.121 106.267 293.158 107.037 292.003 107.037H263.883L263.113 111.082C262.92 111.659 263.113 112.045 263.306 112.045C263.498 112.237 263.883 112.237 264.654 112.237H289.884C291.425 112.237 292.388 113.585 292.195 114.933L291.232 118.208ZM285.069 100.489L286.032 95.0959C286.225 94.5181 286.225 94.1329 285.839 93.9403C285.647 93.7477 285.262 93.7477 284.684 93.7477H267.735C267.158 93.7477 266.772 93.7477 266.387 93.9403C266.195 94.1329 266.002 94.5181 265.809 95.0959L264.846 100.489H285.069Z" fill="#2A0042"/>
</svg>
